<svg width="42" height="42" viewBox="0 0 42 42" fill="none" xmlns="http://www.w3.org/2000/svg">
<g clip-path="url(#clip0_1004_4)">
<rect width="42" height="42" rx="21" fill="#00A68A"/>
<path d="M20.9996 6.63989C13.0636 6.63989 6.59961 13.2655 6.59961 21.3999C6.59961 29.5343 13.0636 36.1599 20.9996 36.1599C28.9356 36.1599 35.3996 29.5343 35.3996 21.3999C35.3996 13.2655 28.9356 6.63989 20.9996 6.63989ZM33.7676 20.5799H28.5836C28.4556 15.6599 27.1436 11.4615 25.1596 9.00149C29.9596 10.7071 33.4476 15.2007 33.7676 20.5799ZM20.1996 8.41109V20.5799H15.0156C15.2076 14.4135 17.4156 9.26389 20.1996 8.41109ZM20.1996 22.2199V34.3887C17.4156 33.5359 15.2076 28.3863 15.0156 22.2199H20.1996ZM21.7996 34.3887V22.2199H26.9836C26.7916 28.3863 24.5836 33.5359 21.7996 34.3887ZM21.7996 20.5799V8.41109C24.5836 9.26389 26.7916 14.4135 26.9836 20.5799H21.7996ZM16.8396 9.00149C14.8876 11.4615 13.5436 15.6599 13.4156 20.5799H8.23161C8.55161 15.2007 12.0396 10.7071 16.8396 9.00149ZM8.23161 22.2199H13.4156C13.5436 27.1399 14.8556 31.3383 16.8396 33.7983C12.0396 32.0927 8.55161 27.5991 8.23161 22.2199ZM25.1596 33.7983C27.1116 31.3383 28.4556 27.1399 28.5836 22.2199H33.7676C33.4476 27.5991 29.9596 32.0927 25.1596 33.7983Z" fill="white"/>
</g>
<defs>
<clipPath id="clip0_1004_4">
<rect width="42" height="42" rx="21" fill="white"/>
</clipPath>
</defs>
</svg>
